<?xml version="1.0" encoding="utf-8"?>
<!-- Generator: Adobe Illustrator 22.0.0, SVG Export Plug-In . SVG Version: 6.00 Build 0)  -->
<svg version="1.1" id="Layer_1" xmlns="http://www.w3.org/2000/svg" xmlns:xlink="http://www.w3.org/1999/xlink" x="0px" y="0px"
	 viewBox="0 0 35.3 28.3" style="enable-background:new 0 0 35.3 28.3;" xml:space="preserve">
<style type="text/css">
	.st0{fill:#05465A;}
</style>
<path class="st0" d="M14.2,12.9c1.9-0.9,2.9-2.3,2.9-4.5c0-4.2-3.2-5.4-6.9-5.4h-10v21.5h10.4c3.8,0,7.6-1.9,7.6-6.3
	C18.2,15.8,16.9,13.7,14.2,12.9L14.2,12.9z M4.9,6.8h4.5c1.7,0,3.2,0.5,3.2,2.4c0,1.8-1.2,2.6-2.8,2.6H4.9C4.9,11.9,4.9,6.8,4.9,6.8
	z M10,21H4.9v-5.9H10c2.1,0,3.3,0.9,3.3,3.1C13.5,20.4,11.9,21,10,21L10,21z M31.7,6.4H23V4.4h8.7L31.7,6.4L31.7,6.4z M35.1,17.2
	c0-4.6-2.7-8.5-7.6-8.5c-4.7,0-7.9,3.6-7.9,8.2c0,4.9,3.1,8.2,7.9,8.2c3.7,0,6.2-1.7,7.3-5.3h-3.7c-0.4,1.3-2.1,2.1-3.3,2.1
	c-2.6,0-3.8-1.4-3.8-4h11.3C35.1,17.7,35.1,17.4,35.1,17.2z M23.9,15.3c0.1-2.1,1.5-3.3,3.6-3.3c2.2,0,3.2,1.3,3.5,3.3H23.9z"/>
</svg>
