<?xml version="1.0" encoding="utf-8"?>
<!-- Generator: Adobe Illustrator 22.0.0, SVG Export Plug-In . SVG Version: 6.00 Build 0)  -->
<svg version="1.1" id="Layer_1" xmlns="http://www.w3.org/2000/svg" xmlns:xlink="http://www.w3.org/1999/xlink" x="0px" y="0px"
	 viewBox="0 0 28.3 28.3" style="enable-background:new 0 0 28.3 28.3;" xml:space="preserve">
<style type="text/css">
	.st0{fill:#05465A;}
</style>
<path class="st0" d="M14.2,0.5C6.6,0.5,0.5,6.6,0.5,14.2s6.1,13.7,13.7,13.7s13.7-6.1,13.7-13.7S21.7,0.5,14.2,0.5z M23.2,6.8
	c1.6,2,2.6,4.5,2.6,7.3c-0.4-0.1-4.3-0.9-8.1-0.4c-0.3-0.8-0.6-1.5-1-2.3C21,9.6,23,7.1,23.2,6.8L23.2,6.8z M21.9,5.4
	c-0.2,0.3-2,2.7-6.1,4.2c-1.9-3.5-4-6.4-4.4-6.8C15.1,1.9,19,2.9,21.9,5.4z M9.2,3.6c0.3,0.4,2.4,3.3,4.3,6.8
	c-5.5,1.5-10.3,1.4-10.8,1.4C3.5,8.2,5.9,5.2,9.2,3.6z M2.5,14.2c0-0.1,0-0.2,0-0.4c0.5,0,6.2,0.1,12-1.7c0.3,0.7,0.7,1.3,0.9,2
	c-4.2,1.2-8.1,4.6-10,7.9C3.6,19.9,2.5,17.2,2.5,14.2z M7,23.4c1.2-2.5,4.5-5.7,9.2-7.3c1.6,4.3,2.3,7.8,2.5,8.9
	C15,26.6,10.5,26.1,7,23.4z M20.7,23.9c-0.1-0.7-0.7-4.1-2.3-8.3c3.7-0.6,6.9,0.4,7.3,0.5C25.2,19.3,23.3,22.1,20.7,23.9z"/>
</svg>
