<?xml version="1.0" encoding="utf-8"?>
<!-- Generator: Adobe Illustrator 22.0.0, SVG Export Plug-In . SVG Version: 6.00 Build 0)  -->
<svg version="1.1" id="Layer_1" xmlns="http://www.w3.org/2000/svg" xmlns:xlink="http://www.w3.org/1999/xlink" x="0px" y="0px"
	 viewBox="0 0 85 85" style="enable-background:new 0 0 85 85;" xml:space="preserve">
<style type="text/css">
	.st0{fill:#10CAB7;}
</style>
<g>
	<path class="st0" d="M55.1,16.8c-1.2,1.3-2.2,2.5-3.3,3.6c-0.7,0.8-1.4,1.6-2.1,2.4c-0.3,0.3-0.6,0.4-1,0.4c-11.4,0-22.8,0-34.2,0
		c-1.8,0-3.1,0.8-3.7,2.3c-0.2,0.5-0.3,1-0.3,1.5c0,10.8,0,21.6,0,32.4c0,2.2,1.5,3.8,3.8,3.8c18.8,0,37.5,0,56.3,0
		c2.2,0,3.7-1.5,3.7-3.7c0-10.8,0-21.6,0-32.4c0-1.9-1-3.1-3.2-3.8c1.7-1.6,3.4-3.1,5.2-4.7c0.2,0.1,0.4,0.3,0.6,0.4
		c2.5,2,3.9,4.6,3.9,7.8c0,11,0,22,0,33.1c0,5.4-4.4,9.8-9.8,9.8c-19,0-37.9,0-56.9,0c-5.4,0-9.8-4.4-9.9-9.8c0-11,0-22,0-33.1
		c0-5.5,4.5-9.9,10.1-9.9c13.3,0,26.5,0,39.8,0C54.3,16.8,54.6,16.8,55.1,16.8z"/>
	<path class="st0" d="M42.4,74.9c11.7,0,23.4,0,35,0c1.7,0,3.2,1.3,3.2,3c0.1,1.7-1.1,3.2-2.9,3.4c-0.2,0-0.4,0-0.6,0
		c-23.2,0-46.4,0-69.6,0c-1.7,0-2.9-0.8-3.4-2.3c-0.6-2,0.8-4,3-4.1c0.2,0,0.4,0,0.7,0C19.4,74.9,30.9,74.9,42.4,74.9L42.4,74.9z"/>
	<path class="st0" d="M66.3,10.1c2.2,2.2,4.3,4.3,6.5,6.5c-0.8,0.8-1.7,1.6-2.6,2.4C64,24.5,57.9,30,51.8,35.5c-0.9,0.8-2,0.9-3,0.2
		c-0.6-0.5-1.2-1-1.7-1.6c-0.8-1-0.7-2.1,0.2-3.1c6.2-6.8,12.4-13.6,18.5-20.4C66,10.4,66.1,10.2,66.3,10.1z"/>
	<path class="st0" d="M32.4,50c0.8-3.3,1.5-6.5,2.3-9.7c0.4-1.6,1.3-3,2.6-4.1c3.8-3.1,9.7-1.2,11,3.4c0.4,1.6,0.1,3.1-0.8,4.5
		c-1,1.6-2.4,2.9-4.1,3.7C39.9,49.5,36.1,49.9,32.4,50z"/>
	<path class="st0" d="M73.8,15.6c-2.2-2.2-4.4-4.4-6.6-6.6c0.6-0.7,1.2-1.3,1.8-2c1.2-1.3,2.4-2.6,3.6-4c0.5-0.5,1-0.8,1.7-0.5
		c0.8,0.3,1.6,0.7,2.2,1.2c1,0.8,1.9,1.8,2.8,2.8c0.6,0.7,1,1.4,1.1,2.3c0,0.3-0.1,0.8-0.3,1C77.9,11.9,75.8,13.8,73.8,15.6z"/>
</g>
</svg>
