<?xml version="1.0" encoding="utf-8"?>
<!-- Generator: Adobe Illustrator 22.0.0, SVG Export Plug-In . SVG Version: 6.00 Build 0)  -->
<svg version="1.1" id="Layer_1" xmlns="http://www.w3.org/2000/svg" xmlns:xlink="http://www.w3.org/1999/xlink" x="0px" y="0px"
	 viewBox="0 0 42.5 51" style="enable-background:new 0 0 42.5 51;" xml:space="preserve">
<style type="text/css">
	.st0{fill:#10CAB7;}
</style>
<g>
	<path class="st0" d="M39.3,43.9H29.2l4.3-4.4c0.5,0.1,1.1,0.2,1.6,0.2c3.9,0,7.2-3.3,7.2-7.4s-3.2-7.4-7.2-7.4
		c-1,0-1.8,0.2-2.8,0.5L27,20l2.2-2.3c1.3-1.5,2.2-3.5,2.2-5.8l0,0c-0.1-4.9-3.9-8.7-8.5-8.7c0,0,0,0-0.1,0c-2.2,0-4,0.9-5.6,2.3
		l-6,6.1l-9,1.2c-0.4,0.1-1,0.2-1.3,0.5s-0.7,1-0.7,1.5c0,0.7,0.4,1.3,0.7,1.7l17.6,18.1c0.4,0.5,1,0.7,1.7,0.7l0,0
		c0.5,0,1.1-0.4,1.5-0.7c0.4-0.5,0.4-0.9,0.5-1.3l-1.3-0.1l1.3,0.1l1.1-9.4l1.8-1.9l4.8,5c-1.3,1.4-2.2,3.2-2.2,5.4
		c0,2.4,1.2,4.7,3.1,6l-5.4,5.6H14.8c-0.5,0-0.9,0.5-0.9,0.9v0.9c0,0.5,0.4,0.9,0.9,0.9h24.5c0.5,0,0.9-0.5,0.9-0.9V45
		C40.1,44.3,39.8,43.9,39.3,43.9z M20.8,22.8l-1.1,9.1L3.6,15.3l8.9-1.1l6.6-6.8c1-0.9,2.2-1.5,3.8-1.5l0,0c3.2,0,5.9,2.7,5.9,6v0.1
		c0,1.5-0.5,2.9-1.5,3.9L20.8,22.8z M35,27.7c2.5,0,4.6,2.2,4.6,4.7s-2.1,4.8-4.6,4.8c-2.5,0-4.6-2.2-4.6-4.7
		C30.4,29.7,32.5,27.7,35,27.7z"/>
</g>
</svg>
