<?xml version="1.0" encoding="utf-8"?>
<!-- Generator: Adobe Illustrator 22.0.0, SVG Export Plug-In . SVG Version: 6.00 Build 0)  -->
<svg version="1.1" id="Layer_1" xmlns="http://www.w3.org/2000/svg" xmlns:xlink="http://www.w3.org/1999/xlink" x="0px" y="0px"
	 viewBox="0 0 28.3 28.3" style="enable-background:new 0 0 28.3 28.3;" xml:space="preserve">
<style type="text/css">
	.st0{fill:#05465A;}
</style>
<path class="st0" d="M25.1,8.6c0,0.2,0,0.5,0,0.7c0,7.4-5.7,16-16,16c-3.2,0-6.1-0.9-8.6-2.5c0.5,0.1,0.9,0.1,1.4,0.1
	c2.6,0,5-0.9,7-2.4c-2.5-0.1-4.5-1.7-5.3-3.9c0.3,0.1,0.7,0.1,1.1,0.1c0.5,0,1-0.1,1.5-0.2C3.5,16,1.6,13.7,1.6,11v-0.1
	c0.8,0.4,1.6,0.7,2.5,0.7c-1.5-1-2.5-2.7-2.5-4.7c0-1,0.3-2,0.8-2.8C5.1,7.5,9.3,9.7,14,10c-0.1-0.4-0.1-0.9-0.1-1.3
	c0-3.1,2.5-5.6,5.6-5.6c1.6,0,3.1,0.7,4.1,1.8c1.3-0.2,2.5-0.7,3.6-1.4c-0.4,1.3-1.3,2.4-2.5,3.1c1.1-0.1,2.2-0.4,3.2-0.9
	C27.1,6.8,26.2,7.8,25.1,8.6L25.1,8.6z"/>
</svg>
