<?xml version="1.0" encoding="utf-8"?>
<!-- Generator: Adobe Illustrator 22.0.0, SVG Export Plug-In . SVG Version: 6.00 Build 0)  -->
<svg version="1.1" id="Layer_1" xmlns="http://www.w3.org/2000/svg" xmlns:xlink="http://www.w3.org/1999/xlink" x="0px" y="0px"
	 viewBox="0 0 85 85" style="enable-background:new 0 0 85 85;" xml:space="preserve">
<style type="text/css">
	.st0{fill:#10CAB7;}
	.st1{opacity:0.52;}
</style>
<g>
	<g>
		<path class="st0" d="M70.6,9.9c-9.4,0-18.7,0-28,0c-0.1,0-0.1,0-0.2,0c-9.3,0-18.6,0-28,0c-5.6,0-10.1,4.4-10.1,9.9
			c0,11.1,0,22.1,0,33.1c0.1,5.4,4.5,9.8,9.9,9.8c9.4,0,18.8,0,28.2,0c0.1,0,0.1,0,0.2,0c9.4,0,18.8,0,28.2,0c5.4,0,9.8-4.4,9.9-9.8
			c0-11,0-22,0-33.1C80.7,14.3,76.2,9.9,70.6,9.9z M74.4,52.4c0,2.2-1.5,3.8-3.8,3.8c-9.3,0-18.7,0-28,0c-0.1,0-0.1,0-0.2,0
			c-9.3,0-18.6,0-28,0c-2.3,0-3.8-1.6-3.8-3.8c0-10.8,0-21.6,0-32.4c0-0.5,0.1-1,0.3-1.5c0.6-1.5,1.9-2.3,3.7-2.3
			c9.3,0,18.5,0,27.8,0c0.1,0,0.1,0,0.2,0c9.3,0,18.5,0,27.8,0c1.8,0,3.1,0.8,3.7,2.3c0.2,0.5,0.3,1,0.3,1.5
			C74.4,30.8,74.4,41.6,74.4,52.4z"/>
		<path class="st0" d="M42.6,67.9c11.7,0,23.4,0,35,0c1.7,0,3.2,1.3,3.2,3c0.1,1.7-1.1,3.2-2.9,3.4c-0.2,0-0.4,0-0.6,0
			c-23.2,0-46.4,0-69.6,0c-1.7,0-2.9-0.8-3.4-2.3c-0.6-2,0.8-4,3-4.1c0.2,0,0.4,0,0.7,0C19.6,67.9,31.1,67.9,42.6,67.9L42.6,67.9z"
			/>
	</g>
	<g>
		<g>
			<path class="st0" d="M26.7,40.3c-0.3,0.7-0.6,1.3-1.1,1.7c-0.5,0.5-1.1,0.9-1.8,1.1c-0.7,0.3-1.5,0.4-2.3,0.4
				c-0.9,0-1.6-0.1-2.3-0.4c-0.7-0.3-1.3-0.7-1.8-1.1c-0.5-0.5-0.8-1.1-1.1-1.7c-0.3-0.7-0.4-1.4-0.4-2.3v-8.6h3.1v8.3
				c0,0.4,0,0.7,0.1,1.1s0.2,0.6,0.4,0.9c0.2,0.3,0.4,0.5,0.8,0.6s0.7,0.2,1.1,0.2c0.4,0,0.8-0.1,1.1-0.2s0.6-0.4,0.8-0.6
				c0.2-0.3,0.3-0.6,0.4-0.9s0.1-0.7,0.1-1.1v-8.3h3.2V38C27.1,38.8,27,39.6,26.7,40.3z"/>
			<path class="st0" d="M29.7,43.2V29.4h3.2v13.7H29.7z"/>
			<path class="st0" d="M54.8,40.3c-0.3,0.7-0.6,1.3-1.1,1.7c-0.5,0.5-1.1,0.9-1.8,1.1c-0.7,0.3-1.5,0.4-2.3,0.4
				c-0.9,0-1.6-0.1-2.3-0.4c-0.7-0.3-1.3-0.7-1.8-1.1c-0.5-0.5-0.8-1.1-1.1-1.7S44,38.8,44,38v-8.6h3.1v8.3c0,0.4,0,0.7,0.1,1.1
				c0.1,0.3,0.2,0.6,0.4,0.9c0.2,0.3,0.4,0.5,0.8,0.6s0.7,0.2,1.1,0.2s0.8-0.1,1.1-0.2c0.3-0.2,0.6-0.4,0.8-0.6s0.3-0.6,0.4-0.9
				s0.1-0.7,0.1-1.1v-8.3h3.2V38C55.2,38.8,55.1,39.6,54.8,40.3z"/>
			<path class="st0" d="M65.6,43.2l-2.9-4.9L60,43.2h-3.8l4.6-7.3l-4.2-6.5h3.8l2.4,4.3l2.4-4.3h3.7l-4.1,6.5l4.7,7.3H65.6z"/>
		</g>
		<g class="st1">
			<path class="st0" d="M42.9,27.6l-6.7,17.8h-2.4l6.8-17.8H42.9z"/>
		</g>
	</g>
</g>
</svg>
