<?xml version="1.0" encoding="utf-8"?>
<!-- Generator: Adobe Illustrator 22.0.0, SVG Export Plug-In . SVG Version: 6.00 Build 0)  -->
<svg version="1.1" id="Layer_1" xmlns="http://www.w3.org/2000/svg" xmlns:xlink="http://www.w3.org/1999/xlink" x="0px" y="0px"
	 viewBox="0 0 85 85" style="enable-background:new 0 0 85 85;" xml:space="preserve">
<style type="text/css">
	.st0{fill:#10CAB7;}
</style>
<g>
	<g>
		<path class="st0" d="M70.6,9.9c-9.4,0-18.7,0-28,0c-0.1,0-0.1,0-0.2,0c-9.3,0-18.6,0-28,0c-5.6,0-10.1,4.4-10.1,9.9
			c0,11.1,0,22.1,0,33.1c0.1,5.4,4.5,9.8,9.9,9.8c9.4,0,18.8,0,28.2,0c0.1,0,0.1,0,0.2,0c9.4,0,18.8,0,28.2,0c5.4,0,9.8-4.4,9.9-9.8
			c0-11,0-22,0-33.1C80.7,14.3,76.2,9.9,70.6,9.9z M74.4,52.4c0,2.2-1.5,3.8-3.8,3.8c-9.3,0-18.7,0-28,0c-0.1,0-0.1,0-0.2,0
			c-9.3,0-18.6,0-28,0c-2.3,0-3.8-1.6-3.8-3.8c0-10.8,0-21.6,0-32.4c0-0.5,0.1-1,0.3-1.5c0.6-1.5,1.9-2.3,3.7-2.3
			c9.3,0,18.5,0,27.8,0c0.1,0,0.1,0,0.2,0c9.3,0,18.5,0,27.8,0c1.8,0,3.1,0.8,3.7,2.3c0.2,0.5,0.3,1,0.3,1.5
			C74.4,30.8,74.4,41.6,74.4,52.4z"/>
		<path class="st0" d="M42.6,67.9c11.7,0,23.4,0,35,0c1.7,0,3.2,1.3,3.2,3c0.1,1.7-1.1,3.2-2.9,3.4c-0.2,0-0.4,0-0.6,0
			c-23.2,0-46.4,0-69.6,0c-1.7,0-2.9-0.8-3.4-2.3c-0.6-2,0.8-4,3-4.1c0.2,0,0.4,0,0.7,0C19.6,67.9,31.1,67.9,42.6,67.9L42.6,67.9z"
			/>
	</g>
	<g>
		<path class="st0" d="M23.2,37.7v-2.8l9.6-6.1v3.8l-6.2,3.7v0.1l6.2,3.7v3.8L23.2,37.7z"/>
		<path class="st0" d="M45.4,25.5h3.5l-8.1,21.3h-3.5L45.4,25.5z"/>
		<path class="st0" d="M52.2,40l6.2-3.7v-0.1l-6.2-3.7v-3.8l9.6,6.1v2.8l-9.6,6.1V40z"/>
	</g>
</g>
</svg>
