<?xml version="1.0" encoding="utf-8"?>
<!-- Generator: Adobe Illustrator 22.0.0, SVG Export Plug-In . SVG Version: 6.00 Build 0)  -->
<svg version="1.1" id="Layer_1" xmlns="http://www.w3.org/2000/svg" xmlns:xlink="http://www.w3.org/1999/xlink" x="0px" y="0px"
	 viewBox="0 0 85 85" style="enable-background:new 0 0 85 85;" xml:space="preserve">
<style type="text/css">
	.st0{fill:#10CAB7;}
	.st1{fill:none;stroke:#10CAB7;stroke-miterlimit:10;}
</style>
<g>
	<path class="st0" d="M72.5,58.1c0,2.2-1.6,3.7-3.7,3.7c-18.8,0-37.6,0-56.4,0c-2.2,0-3.8-1.6-3.8-3.8c0-10.8,0-21.6,0-32.5
		c0-0.5,0.1-1,0.3-1.5c0.6-1.5,1.9-2.3,3.7-2.3c11.4,0,37.7,0,49.2,0c0.4,0,0.6-0.1,0.9-0.4l3.4-6c-13.3,0-40.4,0-53.7,0
		c-5.6,0-10.1,4.4-10.1,9.9c0,11,0,22.1,0,33.1c0,5.4,4.5,9.8,9.9,9.8c19,0,38,0,57,0c5.4,0,9.8-4.4,9.8-9.8c0-11,0-22.1,0-33.1
		c0-0.6-0.1-1.2-0.2-1.8c-2,3.6-4.1,7.3-6.2,11C72.5,42.4,72.5,50.2,72.5,58.1z"/>
	<path class="st0" d="M75.6,73.7c-11.7,0-23.4,0-35.1,0c-11.5,0-23.1,0-34.6,0c-0.2,0-0.5,0-0.7,0c-2.1,0.1-3.6,2.1-3,4.1
		c0.4,1.4,1.7,2.3,3.4,2.3c23.2,0,46.5,0,69.7,0c0.2,0,0.4,0,0.6,0c1.8-0.2,3-1.6,2.9-3.4C78.8,75,77.4,73.7,75.6,73.7z"/>
</g>
<g>
	<path class="st0" d="M72.4,10.8c2.3,1.2,4.6,2.3,6.9,3.5c-0.5,0.8-1,1.7-1.5,2.6C74.5,23,71,29,67.6,35.1c-0.5,0.9-1.4,1.3-2.4,1
		c-0.6-0.2-1.2-0.5-1.8-0.9c-0.9-0.6-1.1-1.5-0.7-2.5c3.1-7.1,6.3-14.3,9.4-21.4C72.3,11.1,72.4,10.9,72.4,10.8z"/>
	<path class="st0" d="M55.9,51.9c-0.3-2.9-0.6-5.6-0.7-8.4c-0.1-1.4,0.2-2.7,1-4c2.2-3.5,7.5-3.6,9.7-0.2c0.8,1.2,0.9,2.5,0.6,3.8
		c-0.4,1.6-1.1,3-2.3,4.1C61.8,49.5,58.9,50.8,55.9,51.9z"/>
	<path class="st0" d="M80,13.3c-2.4-1.2-4.7-2.4-7.1-3.5c0.3-0.7,0.6-1.4,0.9-2.1c0.6-1.4,1.2-2.8,1.8-4.1c0.2-0.6,0.6-0.9,1.2-0.8
		C77.6,2.7,78.3,2.8,79,3c1,0.4,2,1,3,1.5c0.6,0.4,1.2,0.9,1.5,1.6c0.1,0.3,0.2,0.7,0,0.9C82.3,9.1,81.1,11.2,80,13.3z"/>
</g>
<rect x="13.7" y="44.2" class="st0" width="23.6" height="1.6"/>
<rect x="13.7" y="28.1" class="st0" width="15.5" height="11.1"/>
<rect x="13.7" y="49" class="st0" width="23.6" height="1.6"/>
<rect x="32.9" y="28.1" class="st0" width="20.1" height="6.8"/>
<rect x="41.3" y="44.1" class="st1" width="10.9" height="11.9"/>
<rect x="32.9" y="37.6" class="st0" width="20.1" height="1.6"/>
<rect x="13.7" y="53.9" class="st0" width="23.6" height="1.6"/>
<line class="st1" x1="52.2" y1="44.1" x2="41.3" y2="55.9"/>
<line class="st1" x1="41.3" y1="44.1" x2="52.2" y2="55.9"/>
</svg>
