<?xml version="1.0" encoding="utf-8"?>
<!-- Generator: Adobe Illustrator 22.0.0, SVG Export Plug-In . SVG Version: 6.00 Build 0)  -->
<svg version="1.1" id="Layer_1" xmlns="http://www.w3.org/2000/svg" xmlns:xlink="http://www.w3.org/1999/xlink" x="0px" y="0px"
	 viewBox="0 0 42.5 51" style="enable-background:new 0 0 42.5 51;" xml:space="preserve">
<style type="text/css">
	.st0{fill:#10CAB7;}
</style>
<g>
	<path class="st0" d="M27.3,8.6c0.9-0.9,0.9-2.5,0-3.4s-2.5-0.9-3.4,0s-0.9,2.5,0,3.4C24.9,9.5,26.4,9.5,27.3,8.6z M20.2,6.6
		c1.3-1.3,1.3-3.5,0-4.9c-1.3-1.3-3.5-1.3-4.9,0C14,3,14,5.2,15.3,6.6C16.7,7.9,18.9,7.9,20.2,6.6z M39.7,44.6L29.6,27.2
		c-0.6-1-1.2-3.2-1.2-4.4v-8h1.1c0.5,0,0.9-0.4,0.9-0.9V13c0-0.5-0.4-0.9-0.9-0.9H13.3c-0.5,0-0.9,0.4-0.9,0.9v1
		c0,0.5,0.4,0.9,0.9,0.9h0.8v8c0,1.1-0.6,3.4-1.2,4.4L2.8,44.6c-0.3,0.5-0.5,1.1-0.5,1.7c0,0.7,0.3,1.5,0.9,2S4.5,49,5.3,49h31.9
		c0.7,0,1.5-0.2,2.1-0.7s1-1.2,0.9-2C40.2,45.7,40,45.1,39.7,44.6z"/>
</g>
</svg>
