<?xml version="1.0" encoding="utf-8"?>
<!-- Generator: Adobe Illustrator 22.0.0, SVG Export Plug-In . SVG Version: 6.00 Build 0)  -->
<svg version="1.1" id="Layer_1" xmlns="http://www.w3.org/2000/svg" xmlns:xlink="http://www.w3.org/1999/xlink" x="0px" y="0px"
	 viewBox="0 0 42.5 51" style="enable-background:new 0 0 42.5 51;" xml:space="preserve">
<style type="text/css">
	.st0{fill:#10CAB7;}
</style>
<g>
	<path class="st0" d="M29.8,49.7h-17c-0.5,0-0.9-0.4-0.9-0.9v-0.7c0-0.5,0.4-0.9,0.9-0.9H20v-4.4C8.9,41.3,0.5,31.9,0.5,20.7
		c0-7.9,4-15,10.8-19l0.2-0.1l0,0h0.1c0.2-0.1,0.3-0.1,0.5-0.1c0.7,0,1.3,0.6,1.3,1.3c0,0.4-0.2,0.8-0.5,1l-0.2,0.1
		c-1,0.6-2,1.4-3,2.2l2.2,2.2c3-2.7,6.9-4.1,11-4.1c9.2,0,16.6,7.5,16.6,16.6c0,4-1.5,7.9-4.1,11l2.2,2.2c0.8-0.9,1.6-1.9,2.2-2.9
		V31l0.1-0.1c0.3-0.3,0.6-0.5,1-0.5c0.7,0,1.3,0.6,1.3,1.3c0,0.2,0,0.3-0.1,0.5L41.8,32l-0.1,0.1c-4.1,6.7-11.2,10.7-19,10.7
		c-0.1,0-0.1,0-0.2,0V47h7.2c0.5,0,0.9,0.4,0.9,0.9v0.7C30.7,49.3,30.3,49.7,29.8,49.7L29.8,49.7z M7.8,7.8C4.7,11.4,3,15.9,3,20.6
		c0,10.8,8.8,19.7,19.7,19.7c4.7,0,9.3-1.7,12.8-4.8l-2.2-2.2c-3,2.5-6.8,3.9-10.7,3.9C13.4,37.2,6,29.7,6,20.6
		C6.1,16.8,7.5,13,10,10L7.8,7.8L7.8,7.8z M22.7,6.6c-7.7,0-14,6.3-14,14.1c0,7.7,6.3,14.1,14.1,14.1c7.7,0,14.1-6.3,14.1-14.1
		C36.8,12.9,30.5,6.6,22.7,6.6L22.7,6.6z"/>
</g>
</svg>
